<?xml version="1.0" encoding="utf-8"?>
<!-- Generator: Adobe Illustrator 23.0.4, SVG Export Plug-In . SVG Version: 6.00 Build 0)  -->
<svg version="1.1" id="圖層_1" xmlns="http://www.w3.org/2000/svg" xmlns:xlink="http://www.w3.org/1999/xlink" x="0px" y="0px"
	 viewBox="0 0 200 200" style="enable-background:new 0 0 200 200;" xml:space="preserve">
<style type="text/css">
	.st0{fill:#040000;}
</style>
<path class="st0" d="M172.4,74.3l-62.5-62.5c-2.5-2.5-5.8-3.8-9.3-3.8c-3.5,0-6.8,1.4-9.3,3.8l-0.2,0.2c-0.1,0.1-0.3,0.3-0.4,0.4
	L28.8,74.3c-2.6,2.6-3.8,5.9-3.8,9.3s1.3,6.7,3.8,9.3c5.1,5.1,13.4,5.1,18.6,0L87,53.2v126.4c0,7.2,5.9,13.1,13.1,13.1
	s13.1-5.9,13.1-13.1V52.3l40.6,40.6c5.1,5.1,13.4,5.1,18.5,0S177.5,79.5,172.4,74.3z"/>
</svg>
